<svg id="visual" viewBox="0 0 900 100" width="900" height="100" xmlns="http://www.w3.org/2000/svg" xmlns:xlink="http://www.w3.org/1999/xlink" version="1.1"><path d="M0 9L21.5 18.2C43 27.3 86 45.7 128.8 46.5C171.7 47.3 214.3 30.7 257.2 27.2C300 23.7 343 33.3 385.8 40.5C428.7 47.7 471.3 52.3 514.2 51.3C557 50.3 600 43.7 642.8 36.8C685.7 30 728.3 23 771.2 24.2C814 25.3 857 34.7 878.5 39.3L900 44L900 101L878.5 101C857 101 814 101 771.2 101C728.3 101 685.7 101 642.8 101C600 101 557 101 514.2 101C471.3 101 428.7 101 385.8 101C343 101 300 101 257.2 101C214.3 101 171.7 101 128.8 101C86 101 43 101 21.5 101L0 101Z" fill="#101518" stroke-linecap="round" stroke-linejoin="miter"></path></svg>